#!OML:ASF H:\MichaelJackson\Top Level 1\Subject 1\Session 1\male.ASF
:FULLY-SPECIFIED
:DEGREES
700
root 19.742 16.5572 11.4211 1.49557 59.4457 0.853042
lowerback 8.06669 -1.37286 -5.93152
upperback 3.98469 -2.15187 1.55214
thorax -0.0924323 -1.14746 5.11653
lowerneck -6.81974 -5.33614 -1.14438
upperneck 16.6628 -7.19113 1.15291
head 6.26019 -3.41057 0.0252711
rclavicle -3.5247e-014 9.79014e-015
rhumerus -40.7072 0.989848 -89.5338
rradius 52.2065
rwrist 10.2334
rhand -33.8158 -21.447
rfingers 7.12502
rthumb -7.00175 -411.311
lclavicle -3.5247e-014 9.79014e-015
lhumerus 12.3574 -41.5629 68.3187
lradius 67.9579
lwrist -1.74959
lhand 37.0222 22.2616
lfingers 7.12502
lthumb 59.8843 36.1628
rfemur -62.3943 5.43282 16.4975
rtibia 77.1617
rfoot 17.8431 16.5373
rtoes 33.1731
lfemur -24.4697 -0.456752 -25.8064
ltibia 46.1059
lfoot -16.7302 -20.7983
ltoes 25.7684
701
root 19.7761 16.5835 11.5681 1.07388 61.8322 0.758883
lowerback 7.73282 -1.69654 -5.98431
upperback 3.90445 -2.56878 1.58737
thorax 0.0681782 -1.36141 5.19995
lowerneck -6.80115 -5.52147 -1.35916
upperneck 17.1542 -7.4305 1.23975
head 6.42819 -3.5226 0.0615722
rclavicle -1.52567e-014 -2.43511e-015
rhumerus -40.9625 1.81923 -89.927
rradius 51.8698
rwrist 9.91282
rhand -33.3753 -21.2295
rfingers 7.12502
rthumb -6.57651 -411.107
lclavicle -1.52567e-014 -2.43511e-015
lhumerus 9.75463 -43.5164 71.4835
lradius 67.2518
lwrist -4.05694
lhand 36.6138 22.3615
lfingers 7.12502
lthumb 59.5339 36.622
rfemur -62.1192 4.69595 17.0262
rtibia 77.6285
rfoot 19.3046 16.242
rtoes 32.8884
lfemur -23.5634 0.586222 -25.9396
ltibia 46.062
lfoot -16.5187 -20.8761
ltoes 26.0561
702
root 19.8128 16.6128 11.712 0.625091 64.1734 0.609095
lowerback 7.38165 -2.03711 -6.01874
upperback 3.81971 -3.00661 1.62159
thorax 0.236976 -1.58605 5.26781
lowerneck -6.80838 -5.68728 -1.55451
upperneck 17.6534 -7.64092 1.2952
head 6.60216 -3.62145 0.0857807
rclavicle -1.97791e-014 5.1684e-015
rhumerus -41.1671 2.64897 -90.3027
rradius 51.5534
rwrist 9.65695
rhand -32.8897 -20.9683
rfingers 7.12502
rthumb -6.10774 -410.86
lclavicle -1.97791e-014 5.1684e-015
lhumerus 6.65708 -44.9826 75.0968
lradius 66.5389
lwrist -5.53573
lhand 35.5752 22.8369
lfingers 7.12502
lthumb 58.6372 37.9725
rfemur -61.7862 4.02207 17.4176
rtibia 77.8828
rfoot 20.8745 15.802
rtoes 32.624
lfemur -22.6413 1.72122 -26.0558
ltibia 45.9645
lfoot -16.3354 -20.5877
ltoes 26.1825
703
root 19.8519 16.6441 11.8527 0.160076 66.4702 0.420385
lowerback 7.02824 -2.39679 -6.05267
upperback 3.72518 -3.47065 1.65165
thorax 0.401484 -1.82368 5.32746
lowerneck -6.83003 -5.82955 -1.7294
upperneck 18.1489 -7.81776 1.32646
head 6.77641 -3.70463 0.100949
rclavicle -2.63017e-014 -3.67752e-015
rhumerus -41.3318 3.46094 -90.6573
rradius 51.2532
rwrist 9.48608
rhand -32.3529 -20.6478
rfingers 7.12502
rthumb -5.58949 -410.554
lclavicle -2.63017e-014 -3.67752e-015
lhumerus 3.15254 -45.893 79.0595
lradius 65.7618
lwrist -6.37812
lhand 34.0759 23.4222
lfingers 7.12502
lthumb 57.3293 39.7306
rfemur -61.39 3.41499 17.6584
rtibia 77.9246
rfoot 22.466 15.3203
rtoes 32.1865
lfemur -21.7019 2.95613 -26.1678
ltibia 45.8077
lfoot -16.2069 -19.963
ltoes 26.0789
704
root 19.893 16.6768 11.9898 -0.322544 68.7365 0.186208
lowerback 6.66546 -2.77508 -6.06819
upperback 3.62392 -3.95868 1.66621
thorax 0.566258 -2.0729 5.35579
lowerneck -6.86262 -5.95373 -1.87648
upperneck 18.6267 -7.97271 1.35319
head 6.94634 -3.77596 0.111583
rclavicle 6.93199e-014 -6.90777e-015
rhumerus -41.46 4.21978 -90.9899
rradius 50.9773
rwrist 9.39746
rhand -31.7286 -20.2499
rfingers 7.12502
rthumb -4.98666 -410.171
lclavicle 6.93199e-014 -6.90777e-015
lhumerus -0.586354 -46.2421 83.178
lradius 64.8914
lwrist -6.77566
lhand 32.2819 23.8765
lfingers 7.12502
lthumb 55.7459 41.4616
rfemur -60.9379 2.86838 17.7367
rtibia 77.7657
rfoot 24.0323 14.8129
rtoes 31.5792
lfemur -20.7557 4.27314 -26.2755
ltibia 45.5888
lfoot -16.1304 -19.046
ltoes 25.7686
705
root 19.9362 16.7096 12.1235 -0.84495 70.9797 -0.116982
lowerback 6.29641 -3.16633 -6.07204
upperback 3.51546 -4.4638 1.67276
thorax 0.728482 -2.33028 5.36388
lowerneck -6.90382 -6.06883 -2.0016
upperneck 19.0797 -8.11793 1.37886
head 7.10969 -3.84148 0.118971
rclavicle -5.40446e-015 -9.88954e-015
rhumerus -41.5521 4.90178 -91.2817
rradius 50.7285
rwrist 9.35252
rhand -31.0196 -19.7995
rfingers 7.12502
rthumb -4.30207 -409.736
lclavicle -5.40446e-015 -9.88954e-015
lhumerus -4.38216 -46.0317 87.273
lradius 63.9152
lwrist -6.93457
lhand 30.4852 24.1418
lfingers 7.12502
lthumb 54.1426 42.883
rfemur -60.4278 2.36725 17.6641
rtibia 77.4255
rfoot 25.4907 14.3172
rtoes 30.7753
lfemur -19.812 5.64629 -26.3702
ltibia 45.3135
lfoot -16.1004 -17.8879
ltoes 25.3118
706
root 19.981 16.7417 12.2536 -1.42956 73.2135 -0.514114
lowerback 5.91643 -3.57011 -6.04354
upperback 3.40158 -4.98414 1.66094
thorax 0.888878 -2.59433 5.32858
lowerneck -6.95271 -6.18103 -2.10606
upperneck 19.506 -8.26481 1.41887
head 7.26647 -3.90538 0.127347
rclavicle 1.03116e-013 -1.00386e-014
rhumerus -41.6118 5.48222 -91.5389
rradius 50.5134
rwrist 9.33234
rhand -30.2338 -19.3276
rfingers 7.12502
rthumb -3.54327 -409.278
lclavicle 1.03116e-013 -1.00386e-014
lhumerus -8.06476 -45.311 91.1544
lradius 62.8262
lwrist -6.96003
lhand 28.568 24.0485
lfingers 7.12502
lthumb 52.415 43.9044
rfemur -59.8604 1.89756 17.4536
rtibia 76.927
rfoot 26.7537 13.8622
rtoes 29.8845
lfemur -18.8844 7.0384 -26.4499
ltibia 44.9867
lfoot -16.1108 -16.5489
ltoes 24.7602
707
root 20.0272 16.7724 12.3799 -2.12109 75.4522 -1.0528
lowerback 5.5212 -3.98475 -6.00243
upperback 3.28343 -5.51833 1.64684
thorax 1.05313 -2.86508 5.27698
lowerneck -7.00195 -6.2943 -2.20593
upperneck 19.8992 -8.41557 1.46786
head 7.41372 -3.97038 0.137766
rclavicle -3.01755e-014 3.23025e-015
rhumerus -41.6403 5.96818 -91.7401
rradius 50.3355
rwrist 9.31733
rhand -29.3939 -18.872
rfingers 7.12502
rthumb -2.73211 -408.834
lclavicle -3.01755e-014 3.23025e-015
lhumerus -11.4988 -44.1454 94.6888
lradius 61.639
lwrist -6.93487
lhand 26.6064 23.6181
lfingers 7.12502
lthumb 50.6318 44.5026
rfemur -59.2414 1.42981 17.1421
rtibia 76.2955
rfoot 27.7071 13.5986
rtoes 28.5986
lfemur -17.9874 8.4106 -26.5104
ltibia 44.617
lfoot -16.1681 -15.0835
ltoes 24.0893
